<svg width="48" height="48" viewBox="0 0 48 48" fill="none" xmlns="http://www.w3.org/2000/svg">
<g clip-path="url(#clip0_30_2108)">
<path fill-rule="evenodd" clip-rule="evenodd" d="M24 28.2422L34.606 38.8502C35.1688 39.413 35.9321 39.7292 36.728 39.7292C37.5239 39.7292 38.2872 39.413 38.85 38.8502C39.4128 38.2874 39.729 37.5241 39.729 36.7282C39.729 35.9323 39.4128 35.169 38.85 34.6062L28.24 24.0002L38.848 13.3942C39.1265 13.1156 39.3475 12.7848 39.4981 12.4207C39.6488 12.0567 39.7263 11.6665 39.7263 11.2725C39.7262 10.8785 39.6485 10.4884 39.4976 10.1244C39.3467 9.76045 39.1257 9.42975 38.847 9.15122C38.5683 8.87269 38.2375 8.65177 37.8735 8.50108C37.5095 8.35039 37.1193 8.27287 36.7253 8.27297C36.3313 8.27306 35.9412 8.35075 35.5772 8.50162C35.2132 8.65248 34.8825 8.87356 34.604 9.15222L24 19.7582L13.394 9.15222C13.1174 8.86556 12.7865 8.63686 12.4205 8.47947C12.0546 8.32207 11.661 8.23913 11.2626 8.23548C10.8643 8.23183 10.4692 8.30755 10.1005 8.45822C9.73172 8.60889 9.39666 8.83149 9.11485 9.11303C8.83304 9.39458 8.61012 9.72943 8.45911 10.098C8.30809 10.4667 8.232 10.8617 8.23527 11.26C8.23854 11.6583 8.32111 12.052 8.47816 12.4181C8.63522 12.7842 8.8636 13.1153 9.15 13.3922L19.76 24.0002L9.152 34.6062C8.58921 35.169 8.27304 35.9323 8.27304 36.7282C8.27304 37.5241 8.58921 38.2874 9.152 38.8502C9.71479 39.413 10.4781 39.7292 11.274 39.7292C12.0699 39.7292 12.8332 39.413 13.396 38.8502L24 28.2402V28.2422Z" fill="#12232D"/>
</g>
<defs>
<clipPath id="clip0_30_2108">
<rect width="48" height="48" fill="white"/>
</clipPath>
</defs>
</svg>
