<svg width="54" height="53" viewBox="0 0 54 53" fill="none" xmlns="http://www.w3.org/2000/svg">
<path d="M27 0.333008C23.4981 0.333008 20.0305 1.02276 16.7951 2.36289C13.5598 3.70301 10.6201 5.66726 8.14383 8.14349C3.14286 13.1445 0.333344 19.9272 0.333344 26.9997C0.333344 38.7863 7.98668 48.7863 18.5733 52.333C19.9067 52.5463 20.3333 51.7197 20.3333 50.9997V46.493C12.9467 48.093 11.3733 42.9197 11.3733 42.9197C10.1467 39.8263 8.41334 38.9997 8.41334 38.9997C5.98668 37.3463 8.60001 37.3997 8.60001 37.3997C11.2667 37.5863 12.68 40.1463 12.68 40.1463C15 44.1997 18.92 42.9997 20.44 42.3597C20.68 40.6263 21.3733 39.453 22.12 38.7863C16.2 38.1197 9.98668 35.8263 9.98668 25.6663C9.98668 22.7063 11 20.333 12.7333 18.4397C12.4667 17.773 11.5333 14.9997 13 11.3997C13 11.3997 15.24 10.6797 20.3333 14.1197C22.44 13.533 24.7333 13.2397 27 13.2397C29.2667 13.2397 31.56 13.533 33.6667 14.1197C38.76 10.6797 41 11.3997 41 11.3997C42.4667 14.9997 41.5333 17.773 41.2667 18.4397C43 20.333 44.0133 22.7063 44.0133 25.6663C44.0133 35.853 37.7733 38.093 31.8267 38.7597C32.7867 39.5863 33.6667 41.213 33.6667 43.693V50.9997C33.6667 51.7197 34.0933 52.573 35.4533 52.333C46.04 48.7597 53.6667 38.7863 53.6667 26.9997C53.6667 23.4978 52.9769 20.0301 51.6368 16.7948C50.2967 13.5594 48.3324 10.6197 45.8562 8.14349C43.38 5.66726 40.4403 3.70301 37.2049 2.36289C33.9696 1.02276 30.5019 0.333008 27 0.333008Z" fill="#222222"/>
</svg>
