<svg width="48" height="48" viewBox="0 0 48 48" fill="none" xmlns="http://www.w3.org/2000/svg">
<path d="M44 26C44 28.22 42.22 30 40 30H8C6.93913 30 5.92172 29.5786 5.17157 28.8284C4.42143 28.0783 4 27.0609 4 26C4 24.9391 4.42143 23.9217 5.17157 23.1716C5.92172 22.4214 6.93913 22 8 22H26L31 26L36 22H40C41.0609 22 42.0783 22.4214 42.8284 23.1716C43.5786 23.9217 44 24.9391 44 26ZM24 6C6 6 6 18 6 18H42C42 18 42 6 24 6ZM6 36C6 39.32 8.68 42 12 42H36C39.32 42 42 39.32 42 36V34H6V36Z" fill="#F9FBFB"/>
</svg>
