<svg width="266" height="49" viewBox="0 0 266 49" fill="none" xmlns="http://www.w3.org/2000/svg">
<path d="M2.628 36V10.62H7.272L15.84 26.208L24.372 10.62H28.944V36H23.868V20.52L17.316 32.184H14.184L7.668 20.628V36H2.628ZM37.7992 36.396C36.4792 36.396 35.3152 36.144 34.3072 35.64C33.2992 35.136 32.4952 34.452 31.8952 33.588C31.3192 32.724 31.0312 31.752 31.0312 30.672C31.0312 29.4 31.3672 28.38 32.0392 27.612C32.7112 26.844 33.8032 26.304 35.3152 25.992C36.8272 25.656 38.8312 25.488 41.3272 25.488H42.6232V24.876C42.6232 23.82 42.3832 23.076 41.9032 22.644C41.4232 22.188 40.6072 21.96 39.4552 21.96C38.4952 21.96 37.4752 22.116 36.3952 22.428C35.3392 22.716 34.2832 23.16 33.2272 23.76L31.7512 20.124C32.3752 19.716 33.1312 19.344 34.0192 19.008C34.9312 18.672 35.8792 18.42 36.8632 18.252C37.8472 18.06 38.7832 17.964 39.6712 17.964C42.4072 17.964 44.4472 18.588 45.7912 19.836C47.1352 21.06 47.8072 22.968 47.8072 25.56V36H42.7312V33.336C42.3712 34.272 41.7592 35.016 40.8952 35.568C40.0552 36.12 39.0232 36.396 37.7992 36.396ZM39.0232 32.76C40.0312 32.76 40.8832 32.412 41.5792 31.716C42.2752 31.02 42.6232 30.12 42.6232 29.016V28.296H41.3632C39.5152 28.296 38.2072 28.464 37.4392 28.8C36.6712 29.112 36.2872 29.664 36.2872 30.456C36.2872 31.128 36.5152 31.68 36.9712 32.112C37.4512 32.544 38.1352 32.76 39.0232 32.76ZM50.0622 36V18.324H55.3902V20.916C55.9902 19.956 56.7942 19.224 57.8022 18.72C58.8102 18.216 59.9382 17.964 61.1862 17.964C63.2742 17.964 64.8342 18.576 65.8662 19.8C66.8982 21 67.4142 22.86 67.4142 25.38V36H61.9782V25.632C61.9782 24.408 61.7502 23.532 61.2942 23.004C60.8382 22.452 60.1662 22.176 59.2782 22.176C58.1262 22.176 57.2022 22.536 56.5062 23.256C55.8342 23.976 55.4982 24.936 55.4982 26.136V36H50.0622ZM76.5484 36.396C75.0124 36.396 73.6564 36.024 72.4804 35.28C71.3284 34.512 70.4284 33.444 69.7804 32.076C69.1324 30.684 68.8084 29.04 68.8084 27.144C68.8084 25.248 69.1324 23.616 69.7804 22.248C70.4284 20.88 71.3284 19.824 72.4804 19.08C73.6564 18.336 75.0124 17.964 76.5484 17.964C77.7244 17.964 78.8044 18.216 79.7884 18.72C80.7724 19.224 81.5164 19.896 82.0204 20.736V10.62H87.4564V36H82.1284V33.336C81.6484 34.272 80.9044 35.016 79.8964 35.568C78.9124 36.12 77.7964 36.396 76.5484 36.396ZM78.1684 32.328C79.3204 32.328 80.2564 31.908 80.9764 31.068C81.7204 30.228 82.0924 28.92 82.0924 27.144C82.0924 25.392 81.7204 24.108 80.9764 23.292C80.2564 22.452 79.3204 22.032 78.1684 22.032C77.0164 22.032 76.0804 22.452 75.3604 23.292C74.6404 24.108 74.2804 25.392 74.2804 27.144C74.2804 28.92 74.6404 30.228 75.3604 31.068C76.0804 31.908 77.0164 32.328 78.1684 32.328ZM89.773 14.904V9.828H95.641V14.904H89.773ZM86.245 42.948L85.885 39.06L87.577 38.88C89.209 38.688 90.025 37.752 90.025 36.072V18.324H95.461V35.352C95.461 37.008 95.209 38.364 94.705 39.42C94.225 40.476 93.421 41.28 92.293 41.832C91.189 42.384 89.689 42.72 87.793 42.84L86.245 42.948ZM107.069 36.396C104.981 36.396 103.181 36.024 101.669 35.28C100.181 34.512 99.0288 33.444 98.2128 32.076C97.4208 30.684 97.0248 29.052 97.0248 27.18C97.0248 25.356 97.4088 23.76 98.1768 22.392C98.9688 21 100.037 19.92 101.381 19.152C102.749 18.36 104.321 17.964 106.097 17.964C108.665 17.964 110.705 18.78 112.217 20.412C113.729 22.02 114.485 24.204 114.485 26.964V28.332H102.209C102.401 29.724 102.905 30.744 103.721 31.392C104.561 32.016 105.713 32.328 107.177 32.328C108.137 32.328 109.109 32.184 110.093 31.896C111.077 31.608 111.965 31.164 112.757 30.564L114.197 34.2C113.309 34.872 112.217 35.412 110.921 35.82C109.649 36.204 108.365 36.396 107.069 36.396ZM106.313 21.564C105.161 21.564 104.225 21.912 103.505 22.608C102.809 23.304 102.377 24.276 102.209 25.524H109.985C109.841 22.884 108.617 21.564 106.313 21.564ZM122.615 36.396C121.055 36.396 119.603 36.216 118.259 35.856C116.915 35.496 115.799 35.004 114.911 34.38L116.207 30.852C117.095 31.404 118.103 31.848 119.231 32.184C120.383 32.496 121.523 32.652 122.651 32.652C123.659 32.652 124.403 32.496 124.883 32.184C125.363 31.848 125.603 31.416 125.603 30.888C125.603 30.048 124.991 29.52 123.767 29.304L119.987 28.62C118.475 28.356 117.323 27.816 116.531 27C115.739 26.184 115.343 25.116 115.343 23.796C115.343 22.596 115.679 21.564 116.351 20.7C117.023 19.836 117.947 19.164 119.123 18.684C120.299 18.204 121.655 17.964 123.191 17.964C124.463 17.964 125.699 18.132 126.899 18.468C128.099 18.78 129.131 19.284 129.995 19.98L128.627 23.472C127.907 22.944 127.043 22.512 126.035 22.176C125.051 21.84 124.127 21.672 123.263 21.672C122.183 21.672 121.403 21.852 120.923 22.212C120.443 22.548 120.203 22.98 120.203 23.508C120.203 24.348 120.767 24.876 121.895 25.092L125.675 25.776C127.235 26.04 128.423 26.568 129.239 27.36C130.055 28.128 130.463 29.184 130.463 30.528C130.463 32.376 129.743 33.816 128.303 34.848C126.863 35.88 124.967 36.396 122.615 36.396Z" fill="#12232D"/>
<path d="M142.548 36.324C139.932 36.324 137.88 35.724 136.392 34.524C134.904 33.324 134.16 31.728 134.16 29.736C134.16 28.104 134.604 26.688 135.492 25.488C136.38 24.288 137.676 23.16 139.38 22.104L139.812 21.852C138.78 20.772 138.048 19.788 137.616 18.9C137.208 17.988 137.004 17.052 137.004 16.092C137.004 14.364 137.604 12.972 138.804 11.916C140.004 10.836 141.6 10.296 143.592 10.296C145.392 10.296 146.844 10.776 147.948 11.736C149.052 12.696 149.604 13.992 149.604 15.624C149.604 16.872 149.232 18.036 148.488 19.116C147.768 20.172 146.508 21.264 144.708 22.392L150.144 28.368C150.624 27.384 151.008 26.256 151.296 24.984C151.584 23.688 151.764 22.344 151.836 20.952H154.896C154.848 22.8 154.596 24.552 154.14 26.208C153.684 27.84 153.072 29.292 152.304 30.564L157.524 36H153.096L150.36 33.012C149.352 34.068 148.176 34.884 146.832 35.46C145.488 36.036 144.06 36.324 142.548 36.324ZM143.592 12.96C142.632 12.96 141.852 13.248 141.252 13.824C140.676 14.376 140.388 15.108 140.388 16.02C140.388 16.716 140.544 17.352 140.856 17.928C141.192 18.504 141.804 19.296 142.692 20.304C144.084 19.44 145.068 18.672 145.644 18C146.22 17.328 146.508 16.584 146.508 15.768C146.508 14.88 146.232 14.196 145.68 13.716C145.152 13.212 144.456 12.96 143.592 12.96ZM142.728 33.408C144.984 33.408 146.844 32.58 148.308 30.924L141.792 23.976L141.576 24.12C140.184 25.008 139.2 25.848 138.624 26.64C138.048 27.408 137.76 28.344 137.76 29.448C137.76 30.696 138.18 31.668 139.02 32.364C139.884 33.06 141.12 33.408 142.728 33.408Z" fill="#12232D"/>
<path d="M169.953 26.0762H162.658V24.2305H169.953C171.477 24.2305 172.713 23.9844 173.662 23.4922C174.623 22.9883 175.32 22.3086 175.754 21.4531C176.199 20.5977 176.422 19.6367 176.422 18.5703C176.422 17.5273 176.199 16.5664 175.754 15.6875C175.32 14.8086 174.623 14.1055 173.662 13.5781C172.713 13.0391 171.477 12.7695 169.953 12.7695H163.414V36.5H161.252V10.9062H169.953C171.828 10.9062 173.404 11.2285 174.682 11.873C175.971 12.5176 176.943 13.4141 177.6 14.5625C178.256 15.7109 178.584 17.0352 178.584 18.5352C178.584 20.1055 178.256 21.459 177.6 22.5957C176.943 23.7207 175.977 24.582 174.699 25.1797C173.422 25.7773 171.84 26.0762 169.953 26.0762ZM193.325 32.1055V17.4805H195.434V36.5H193.413L193.325 32.1055ZM193.712 28.5898L194.802 28.5547C194.802 29.75 194.661 30.8516 194.38 31.8594C194.098 32.8672 193.659 33.7461 193.061 34.4961C192.464 35.2461 191.69 35.8262 190.741 36.2363C189.792 36.6465 188.649 36.8516 187.313 36.8516C186.388 36.8516 185.538 36.7227 184.764 36.4648C184.003 36.1953 183.346 35.7734 182.796 35.1992C182.245 34.625 181.817 33.8809 181.513 32.9668C181.22 32.0527 181.073 30.9453 181.073 29.6445V17.4805H183.165V29.6797C183.165 30.6992 183.276 31.5488 183.499 32.2285C183.733 32.9082 184.05 33.4531 184.448 33.8633C184.858 34.2734 185.327 34.5664 185.854 34.7422C186.382 34.918 186.95 35.0059 187.559 35.0059C189.106 35.0059 190.325 34.707 191.216 34.1094C192.118 33.5117 192.757 32.7266 193.132 31.7539C193.518 30.7695 193.712 29.7148 193.712 28.5898ZM211.318 32.1055V17.4805H213.427V36.5H211.406L211.318 32.1055ZM211.705 28.5898L212.795 28.5547C212.795 29.75 212.654 30.8516 212.373 31.8594C212.091 32.8672 211.652 33.7461 211.054 34.4961C210.457 35.2461 209.683 35.8262 208.734 36.2363C207.785 36.6465 206.642 36.8516 205.306 36.8516C204.38 36.8516 203.531 36.7227 202.757 36.4648C201.996 36.1953 201.339 35.7734 200.789 35.1992C200.238 34.625 199.81 33.8809 199.505 32.9668C199.213 32.0527 199.066 30.9453 199.066 29.6445V17.4805H201.158V29.6797C201.158 30.6992 201.269 31.5488 201.492 32.2285C201.726 32.9082 202.043 33.4531 202.441 33.8633C202.851 34.2734 203.32 34.5664 203.847 34.7422C204.375 34.918 204.943 35.0059 205.552 35.0059C207.099 35.0059 208.318 34.707 209.209 34.1094C210.111 33.5117 210.75 32.7266 211.125 31.7539C211.511 30.7695 211.705 29.7148 211.705 28.5898ZM224.319 17.4805V19.2031H214.791V17.4805H224.319ZM218.289 12.5938H220.381V31.877C220.381 32.7559 220.498 33.418 220.733 33.8633C220.967 34.3086 221.272 34.6074 221.647 34.7598C222.022 34.9121 222.426 34.9883 222.86 34.9883C223.176 34.9883 223.481 34.9707 223.774 34.9355C224.067 34.8887 224.33 34.8418 224.565 34.7949L224.653 36.5703C224.395 36.6523 224.061 36.7168 223.651 36.7637C223.241 36.8223 222.83 36.8516 222.42 36.8516C221.612 36.8516 220.897 36.7051 220.276 36.4121C219.655 36.1074 219.168 35.5918 218.817 34.8652C218.465 34.127 218.289 33.125 218.289 31.8594V12.5938ZM227.089 17.4805H229.198V38.7676C229.198 39.9277 229.005 40.9121 228.618 41.7207C228.232 42.5293 227.669 43.1387 226.931 43.5488C226.193 43.9707 225.284 44.1816 224.206 44.1816C223.913 44.1816 223.597 44.1523 223.257 44.0938C222.917 44.0352 222.607 43.9531 222.325 43.8477L222.361 42.0898C222.571 42.1484 222.823 42.2012 223.116 42.248C223.398 42.3066 223.673 42.3359 223.943 42.3359C224.622 42.3359 225.196 42.2012 225.665 41.9316C226.134 41.6738 226.486 41.2812 226.72 40.7539C226.966 40.2266 227.089 39.5645 227.089 38.7676V17.4805ZM226.72 11.9785C226.72 11.5801 226.849 11.2461 227.107 10.9766C227.364 10.6953 227.716 10.5547 228.161 10.5547C228.607 10.5547 228.958 10.6953 229.216 10.9766C229.486 11.2461 229.62 11.5801 229.62 11.9785C229.62 12.3652 229.486 12.6992 229.216 12.9805C228.958 13.25 228.607 13.3848 228.161 13.3848C227.716 13.3848 227.364 13.25 227.107 12.9805C226.849 12.6992 226.72 12.3652 226.72 11.9785ZM240.705 36.8516C239.463 36.8516 238.32 36.623 237.277 36.166C236.246 35.709 235.344 35.0645 234.57 34.2324C233.809 33.4004 233.217 32.416 232.795 31.2793C232.385 30.1309 232.18 28.877 232.18 27.5176V26.7617C232.18 25.2969 232.396 23.9727 232.83 22.7891C233.264 21.6055 233.861 20.5918 234.623 19.748C235.385 18.9043 236.252 18.2598 237.225 17.8145C238.209 17.3574 239.24 17.1289 240.318 17.1289C241.525 17.1289 242.598 17.3457 243.535 17.7793C244.473 18.2012 245.258 18.8047 245.891 19.5898C246.535 20.3633 247.021 21.2832 247.35 22.3496C247.678 23.4043 247.842 24.5703 247.842 25.8477V27.1309H233.445V25.3379H245.75V25.0918C245.727 24.0254 245.51 23.0293 245.1 22.1035C244.701 21.166 244.104 20.4043 243.307 19.8184C242.51 19.2324 241.514 18.9395 240.318 18.9395C239.428 18.9395 238.607 19.127 237.857 19.502C237.119 19.877 236.48 20.416 235.941 21.1191C235.414 21.8105 235.004 22.6367 234.711 23.5977C234.43 24.5469 234.289 25.6016 234.289 26.7617V27.5176C234.289 28.5723 234.441 29.5566 234.746 30.4707C235.062 31.373 235.508 32.1699 236.082 32.8613C236.668 33.5527 237.359 34.0918 238.156 34.4785C238.953 34.8652 239.832 35.0586 240.793 35.0586C241.918 35.0586 242.914 34.8535 243.781 34.4434C244.648 34.0215 245.428 33.3594 246.119 32.457L247.438 33.4766C247.027 34.0859 246.512 34.6484 245.891 35.1641C245.281 35.6797 244.549 36.0898 243.693 36.3945C242.838 36.6992 241.842 36.8516 240.705 36.8516ZM261.581 31.6484C261.581 31.1328 261.452 30.623 261.194 30.1191C260.936 29.6152 260.438 29.1523 259.7 28.7305C258.973 28.3086 257.901 27.9512 256.483 27.6582C255.429 27.4238 254.485 27.1602 253.653 26.8672C252.833 26.5742 252.141 26.2227 251.579 25.8125C251.016 25.4023 250.589 24.9102 250.296 24.3359C250.003 23.7617 249.856 23.082 249.856 22.2969C249.856 21.5938 250.009 20.9316 250.313 20.3105C250.63 19.6777 251.075 19.127 251.649 18.6582C252.235 18.1777 252.938 17.8027 253.759 17.5332C254.591 17.2637 255.522 17.1289 256.554 17.1289C258.018 17.1289 259.272 17.3809 260.315 17.8848C261.37 18.377 262.173 19.0508 262.723 19.9062C263.286 20.7617 263.567 21.7285 263.567 22.8066H261.475C261.475 22.1504 261.282 21.5293 260.895 20.9434C260.52 20.3574 259.964 19.877 259.225 19.502C258.499 19.127 257.608 18.9395 256.554 18.9395C255.464 18.9395 254.579 19.1035 253.899 19.4316C253.22 19.7598 252.721 20.1758 252.405 20.6797C252.1 21.1836 251.948 21.7051 251.948 22.2441C251.948 22.666 252.012 23.0527 252.141 23.4043C252.282 23.7441 252.528 24.0605 252.88 24.3535C253.243 24.6465 253.759 24.9219 254.427 25.1797C255.095 25.4375 255.962 25.6895 257.028 25.9355C258.563 26.2754 259.817 26.6914 260.79 27.1836C261.774 27.6641 262.501 28.2617 262.97 28.9766C263.438 29.6797 263.673 30.5352 263.673 31.543C263.673 32.3281 263.509 33.0488 263.18 33.7051C262.852 34.3496 262.378 34.9062 261.757 35.375C261.147 35.8438 260.409 36.207 259.542 36.4648C258.686 36.7227 257.725 36.8516 256.659 36.8516C255.054 36.8516 253.694 36.5879 252.581 36.0605C251.479 35.5215 250.641 34.8184 250.067 33.9512C249.505 33.0723 249.223 32.1406 249.223 31.1562H251.315C251.386 32.1406 251.696 32.9199 252.247 33.4941C252.798 34.0566 253.471 34.4551 254.268 34.6895C255.077 34.9238 255.874 35.041 256.659 35.041C257.737 35.041 258.639 34.8828 259.366 34.5664C260.093 34.25 260.643 33.834 261.018 33.3184C261.393 32.8027 261.581 32.2461 261.581 31.6484Z" fill="#12232D"/>
</svg>
