<svg width="58" height="33" viewBox="0 0 58 33" fill="none" xmlns="http://www.w3.org/2000/svg">
<rect x="0.5" y="0.5" width="57" height="32" rx="1.5" stroke="#F9FBFB"/>
<path d="M5.752 24V7.08H8.848L14.56 17.472L20.248 7.08H23.296V24H19.912V13.68L15.544 21.456H13.456L9.112 13.752V24H5.752Z" fill="#F9FBFB"/>
<path d="M31.032 24.216C29.288 24.216 27.92 23.816 26.928 23.016C25.936 22.216 25.44 21.152 25.44 19.824C25.44 18.736 25.736 17.792 26.328 16.992C26.92 16.192 27.784 15.44 28.92 14.736L29.208 14.568C28.52 13.848 28.032 13.192 27.744 12.6C27.472 11.992 27.336 11.368 27.336 10.728C27.336 9.576 27.736 8.648 28.536 7.944C29.336 7.224 30.4 6.864 31.728 6.864C32.928 6.864 33.896 7.184 34.632 7.824C35.368 8.464 35.736 9.328 35.736 10.416C35.736 11.248 35.488 12.024 34.992 12.744C34.512 13.448 33.672 14.176 32.472 14.928L36.096 18.912C36.416 18.256 36.672 17.504 36.864 16.656C37.056 15.792 37.176 14.896 37.224 13.968H39.264C39.232 15.2 39.064 16.368 38.76 17.472C38.456 18.56 38.048 19.528 37.536 20.376L41.016 24H38.064L36.24 22.008C35.568 22.712 34.784 23.256 33.888 23.64C32.992 24.024 32.04 24.216 31.032 24.216ZM31.728 8.64C31.088 8.64 30.568 8.832 30.168 9.216C29.784 9.584 29.592 10.072 29.592 10.68C29.592 11.144 29.696 11.568 29.904 11.952C30.128 12.336 30.536 12.864 31.128 13.536C32.056 12.96 32.712 12.448 33.096 12C33.48 11.552 33.672 11.056 33.672 10.512C33.672 9.92 33.488 9.464 33.12 9.144C32.768 8.808 32.304 8.64 31.728 8.64ZM31.152 22.272C32.656 22.272 33.896 21.72 34.872 20.616L30.528 15.984L30.384 16.08C29.456 16.672 28.8 17.232 28.416 17.76C28.032 18.272 27.84 18.896 27.84 19.632C27.84 20.464 28.12 21.112 28.68 21.576C29.256 22.04 30.08 22.272 31.152 22.272Z" fill="#F9FBFB"/>
<path d="M46.9688 17.0508H42.1055V15.8203H46.9688C47.9844 15.8203 48.8086 15.6562 49.4414 15.3281C50.082 14.9922 50.5469 14.5391 50.8359 13.9688C51.1328 13.3984 51.2812 12.7578 51.2812 12.0469C51.2812 11.3516 51.1328 10.7109 50.8359 10.125C50.5469 9.53906 50.082 9.07031 49.4414 8.71875C48.8086 8.35938 47.9844 8.17969 46.9688 8.17969H42.6094V24H41.168V6.9375H46.9688C48.2188 6.9375 49.2695 7.15234 50.1211 7.58203C50.9805 8.01172 51.6289 8.60938 52.0664 9.375C52.5039 10.1406 52.7227 11.0234 52.7227 12.0234C52.7227 13.0703 52.5039 13.9727 52.0664 14.7305C51.6289 15.4805 50.9844 16.0547 50.1328 16.4531C49.2812 16.8516 48.2266 17.0508 46.9688 17.0508Z" fill="#F9FBFB"/>
</svg>
